<?xml version="1.0" standalone="no"?>
<!DOCTYPE svg PUBLIC "-//W3C//DTD SVG 20010904//EN"
 "http://www.w3.org/TR/2001/REC-SVG-20010904/DTD/svg10.dtd">
<svg version="1.0" xmlns="http://www.w3.org/2000/svg"
 width="260.000000pt" height="260.000000pt" viewBox="0 0 260.000000 260.000000"
 preserveAspectRatio="xMidYMid meet">
<metadata>
Created by potrace 1.14, written by Peter Selinger 2001-2017
</metadata>
<g transform="translate(0.000000,260.000000) scale(0.100000,-0.100000)"
fill="#000000" stroke="none">
<path d="M638 2029 c-199 -29 -375 -146 -478 -319 -69 -115 -99 -231 -94 -367
11 -318 236 -578 554 -637 89 -17 1302 -14 1375 3 234 55 413 208 493 424 30
80 34 99 38 217 7 204 -66 377 -218 515 -69 63 -206 135 -298 156 -42 10 -210
13 -690 14 -349 0 -656 -3 -682 -6z m709 -240 c-20 -22 -51 -71 -70 -107 -127
-243 -100 -532 70 -739 l34 -43 -360 1 c-352 1 -362 2 -432 26 -198 66 -315
229 -314 438 1 106 5 124 40 199 60 126 192 233 312 252 21 3 40 8 42 9 2 2
163 4 358 5 l355 0 -35 -41z m627 26 c203 -53 341 -225 350 -435 8 -174 -100
-354 -257 -429 -149 -71 -329 -59 -459 30 -193 132 -259 391 -153 600 33 64
124 157 185 190 101 54 232 71 334 44z"/>
</g>
</svg>
